<svg xmlns="http://www.w3.org/2000/svg" viewBox="0 0 640 452" width="640" height="452" class="viz" role="img" aria-label="Reliability of the deposit-address model: ethereum, latest 294 addresses">
<style>
.viz{--surface:#fcfcfb;--ink:#0b0b0b;--ink2:#52514e;--muted:#898781;--grid:#e1e0d9;
--axis:#c3c2b7;--series:#2a78d6;font-family:system-ui,-apple-system,"Segoe UI",sans-serif}
@media (prefers-color-scheme: dark){.viz{--surface:#1a1a19;--ink:#ffffff;--ink2:#c3c2b7;
--grid:#2c2c2a;--axis:#383835;--series:#3987e5}}
.bg{fill:var(--surface)}.t{fill:var(--ink);font-size:15px;font-weight:600}
.s{fill:var(--ink2);font-size:12px}.m{fill:var(--muted);font-size:11px}
.v{fill:var(--ink);font-size:12px;font-variant-numeric:tabular-nums}
.g{stroke:var(--grid);stroke-width:1}.a{stroke:var(--axis);stroke-width:1}
.d{stroke:var(--axis);stroke-width:1.5;stroke-dasharray:4 4;fill:none}
.l{stroke:var(--series);stroke-width:2;fill:none;stroke-linejoin:round}
.p{fill:var(--series);stroke:var(--surface);stroke-width:2}.b{fill:var(--series)}
</style>
<rect class="bg" width="640" height="452"/>
<text class="t" x="64" y="28">How well the probabilities hold: ethereum, latest 294 addresses</text>
<text class="s" x="64" y="48">Share that really were deposit addresses, by predicted probability · ECE 0.056 · Brier 0.057</text>
<line class="a" x1="64" x2="600" y1="316.0" y2="316.0"/>
<text class="m" x="56" y="320.0" text-anchor="end">0%</text>
<text class="m" x="64.0" y="334" text-anchor="middle">0%</text>
<line class="g" x1="64" x2="600" y1="256.0" y2="256.0"/>
<text class="m" x="56" y="260.0" text-anchor="end">25%</text>
<text class="m" x="198.0" y="334" text-anchor="middle">25%</text>
<line class="g" x1="64" x2="600" y1="196.0" y2="196.0"/>
<text class="m" x="56" y="200.0" text-anchor="end">50%</text>
<text class="m" x="332.0" y="334" text-anchor="middle">50%</text>
<line class="g" x1="64" x2="600" y1="136.0" y2="136.0"/>
<text class="m" x="56" y="140.0" text-anchor="end">75%</text>
<text class="m" x="466.0" y="334" text-anchor="middle">75%</text>
<line class="g" x1="64" x2="600" y1="76.0" y2="76.0"/>
<text class="m" x="56" y="80.0" text-anchor="end">100%</text>
<text class="m" x="600.0" y="334" text-anchor="middle">100%</text>
<text class="m" x="600" y="352" text-anchor="end">predicted probability</text>
<text class="m" x="64" y="66">observed share</text>
<line class="d" x1="64.0" y1="316.0" x2="600.0" y2="76.0"/>
<text class="m" x="449.9" y="124.0" text-anchor="end">perfect calibration</text>
<polyline class="l" points="81.8,316.0 139.1,290.7 179.6,316.0 272.1,316.0 358.9,268.0 417.5,116.0 460.7,156.0 517.9,109.5 576.1,84.0"/>
<circle class="p" cx="81.8" cy="316.0" r="5"><title>Predicted 3%, observed 0%, 137 addresses</title></circle>
<circle class="p" cx="139.1" cy="290.7" r="5"><title>Predicted 14%, observed 11%, 19 addresses</title></circle>
<circle class="p" cx="179.6" cy="316.0" r="5"><title>Predicted 22%, observed 0%, 3 addresses</title></circle>
<circle class="p" cx="272.1" cy="316.0" r="5"><title>Predicted 39%, observed 0%, 3 addresses</title></circle>
<circle class="p" cx="358.9" cy="268.0" r="5"><title>Predicted 55%, observed 20%, 20 addresses</title></circle>
<circle class="p" cx="417.5" cy="116.0" r="5"><title>Predicted 66%, observed 83%, 6 addresses</title></circle>
<circle class="p" cx="460.7" cy="156.0" r="5"><title>Predicted 74%, observed 67%, 3 addresses</title></circle>
<circle class="p" cx="517.9" cy="109.5" r="5"><title>Predicted 85%, observed 86%, 43 addresses</title></circle>
<circle class="p" cx="576.1" cy="84.0" r="5"><title>Predicted 96%, observed 97%, 60 addresses</title></circle>
<text class="m" x="64" y="356">addresses per bin</text>
<line class="a" x1="64" x2="600" y1="420" y2="420"/>
<path class="b" d="M65.0,420.0 v-52.0 q0,-4.0 4.0,-4.0 h43.6 q4.0,0 4.0,4.0 v52.0 z"><title>137 addresses predicted near 5%</title></path>
<text class="v" x="90.8" y="359.0" text-anchor="middle">137</text>
<path class="b" d="M118.6,420.0 v-3.8 q0,-4.0 4.0,-4.0 h43.6 q4.0,0 4.0,4.0 v3.8 z"><title>19 addresses predicted near 15%</title></path>
<path class="b" d="M172.2,420.0 v-0.0 q0,-1.2 1.2,-1.2 h49.1 q1.2,0 1.2,1.2 v0.0 z"><title>3 addresses predicted near 25%</title></path>
<path class="b" d="M225.8,420.0 v-0.0 q0,-1.2 1.2,-1.2 h49.1 q1.2,0 1.2,1.2 v0.0 z"><title>3 addresses predicted near 35%</title></path>
<path class="b" d="M333.0,420.0 v-4.2 q0,-4.0 4.0,-4.0 h43.6 q4.0,0 4.0,4.0 v4.2 z"><title>20 addresses predicted near 55%</title></path>
<path class="b" d="M386.6,420.0 v-0.0 q0,-2.5 2.5,-2.5 h46.7 q2.5,0 2.5,2.5 v0.0 z"><title>6 addresses predicted near 65%</title></path>
<path class="b" d="M440.2,420.0 v-0.0 q0,-1.2 1.2,-1.2 h49.1 q1.2,0 1.2,1.2 v0.0 z"><title>3 addresses predicted near 75%</title></path>
<path class="b" d="M493.8,420.0 v-13.6 q0,-4.0 4.0,-4.0 h43.6 q4.0,0 4.0,4.0 v13.6 z"><title>43 addresses predicted near 85%</title></path>
<path class="b" d="M547.4,420.0 v-20.5 q0,-4.0 4.0,-4.0 h43.6 q4.0,0 4.0,4.0 v20.5 z"><title>60 addresses predicted near 95%</title></path>
</svg>
