<svg xmlns="http://www.w3.org/2000/svg" viewBox="0 0 640 488" width="640" height="488" class="viz" role="img" aria-label="Reliability of the deposit-address model: ethereum, the scores the labels carry">
<style>
.viz{--surface:#fcfcfb;--ink:#0b0b0b;--ink2:#52514e;--muted:#898781;--grid:#e1e0d9;
--axis:#c3c2b7;--series:#2a78d6;font-family:system-ui,-apple-system,"Segoe UI",sans-serif}
@media (prefers-color-scheme: dark){.viz{--surface:#1a1a19;--ink:#ffffff;--ink2:#c3c2b7;
--grid:#2c2c2a;--axis:#383835;--series:#3987e5}}
.bg{fill:var(--surface)}.t{fill:var(--ink);font-size:15px;font-weight:600}
.s{fill:var(--ink2);font-size:12px}.m{fill:var(--muted);font-size:11px}
.v{fill:var(--ink);font-size:12px;font-variant-numeric:tabular-nums}
.g{stroke:var(--grid);stroke-width:1}.a{stroke:var(--axis);stroke-width:1}
.d{stroke:var(--axis);stroke-width:1.5;stroke-dasharray:4 4;fill:none}
.l{stroke:var(--series);stroke-width:2;fill:none;stroke-linejoin:round}
.p{fill:var(--series);stroke:var(--surface);stroke-width:2}.b{fill:var(--series)}
</style>
<rect class="bg" width="640" height="488"/>
<text class="t" x="64" y="28">How well the probabilities hold: ethereum, the scores the labels carry</text>
<text class="s" x="64" y="48">Share that really were deposit addresses, by predicted probability · ECE 0.028 · Brier 0.061</text>
<line class="a" x1="64" x2="600" y1="316.0" y2="316.0"/>
<text class="m" x="56" y="320.0" text-anchor="end">0%</text>
<text class="m" x="64.0" y="334" text-anchor="middle">0%</text>
<line class="g" x1="64" x2="600" y1="256.0" y2="256.0"/>
<text class="m" x="56" y="260.0" text-anchor="end">25%</text>
<text class="m" x="198.0" y="334" text-anchor="middle">25%</text>
<line class="g" x1="64" x2="600" y1="196.0" y2="196.0"/>
<text class="m" x="56" y="200.0" text-anchor="end">50%</text>
<text class="m" x="332.0" y="334" text-anchor="middle">50%</text>
<line class="g" x1="64" x2="600" y1="136.0" y2="136.0"/>
<text class="m" x="56" y="140.0" text-anchor="end">75%</text>
<text class="m" x="466.0" y="334" text-anchor="middle">75%</text>
<line class="g" x1="64" x2="600" y1="76.0" y2="76.0"/>
<text class="m" x="56" y="80.0" text-anchor="end">100%</text>
<text class="m" x="600.0" y="334" text-anchor="middle">100%</text>
<text class="m" x="600" y="352" text-anchor="end">predicted probability</text>
<text class="m" x="64" y="66">observed share</text>
<line class="d" x1="64.0" y1="316.0" x2="600.0" y2="76.0"/>
<text class="m" x="600" y="66" text-anchor="end">dashed line: perfect calibration</text>
<polyline class="l" points="78.6,312.9 135.4,298.4 198.1,264.1 238.8,292.0 297.7,179.3 365.1,192.4 424.7,169.9 473.0,116.5 526.7,99.8 576.8,87.1"/>
<circle class="p" cx="78.6" cy="312.9" r="5"><title>Predicted 3%, observed 1%, 696 addresses</title></circle>
<circle class="p" cx="135.4" cy="298.4" r="5"><title>Predicted 13%, observed 7%, 41 addresses</title></circle>
<circle class="p" cx="198.1" cy="264.1" r="5"><title>Predicted 25%, observed 22%, 37 addresses</title></circle>
<circle class="p" cx="238.8" cy="292.0" r="5"><title>Predicted 33%, observed 10%, 20 addresses</title></circle>
<circle class="p" cx="297.7" cy="179.3" r="5"><title>Predicted 44%, observed 57%, 72 addresses</title></circle>
<circle class="p" cx="365.1" cy="192.4" r="5"><title>Predicted 56%, observed 52%, 33 addresses</title></circle>
<circle class="p" cx="424.7" cy="169.9" r="5"><title>Predicted 67%, observed 61%, 23 addresses</title></circle>
<circle class="p" cx="473.0" cy="116.5" r="5"><title>Predicted 76%, observed 83%, 77 addresses</title></circle>
<circle class="p" cx="526.7" cy="99.8" r="5"><title>Predicted 86%, observed 90%, 101 addresses</title></circle>
<circle class="p" cx="576.8" cy="87.1" r="5"><title>Predicted 96%, observed 95%, 367 addresses</title></circle>
<text class="m" x="64" y="454">addresses per bin</text>
<line class="a" x1="64" x2="600" y1="438" y2="438"/>
<path class="b" d="M65.0,438.0 v-52.0 q0,-4.0 4.0,-4.0 h43.6 q4.0,0 4.0,4.0 v52.0 z"><title>696 addresses predicted near 5%</title></path>
<text class="v" x="90.8" y="377.0" text-anchor="middle">696</text>
<path class="b" d="M118.6,438.0 v-0.0 q0,-3.3 3.3,-3.3 h45.0 q3.3,0 3.3,3.3 v0.0 z"><title>41 addresses predicted near 15%</title></path>
<path class="b" d="M172.2,438.0 v-0.0 q0,-3.0 3.0,-3.0 h45.6 q3.0,0 3.0,3.0 v0.0 z"><title>37 addresses predicted near 25%</title></path>
<path class="b" d="M225.8,438.0 v-0.0 q0,-1.6 1.6,-1.6 h48.4 q1.6,0 1.6,1.6 v0.0 z"><title>20 addresses predicted near 35%</title></path>
<path class="b" d="M279.4,438.0 v-1.8 q0,-4.0 4.0,-4.0 h43.6 q4.0,0 4.0,4.0 v1.8 z"><title>72 addresses predicted near 45%</title></path>
<path class="b" d="M333.0,438.0 v-0.0 q0,-2.7 2.7,-2.7 h46.3 q2.7,0 2.7,2.7 v0.0 z"><title>33 addresses predicted near 55%</title></path>
<path class="b" d="M386.6,438.0 v-0.0 q0,-1.9 1.9,-1.9 h47.9 q1.9,0 1.9,1.9 v0.0 z"><title>23 addresses predicted near 65%</title></path>
<path class="b" d="M440.2,438.0 v-2.2 q0,-4.0 4.0,-4.0 h43.6 q4.0,0 4.0,4.0 v2.2 z"><title>77 addresses predicted near 75%</title></path>
<path class="b" d="M493.8,438.0 v-4.1 q0,-4.0 4.0,-4.0 h43.6 q4.0,0 4.0,4.0 v4.1 z"><title>101 addresses predicted near 85%</title></path>
<path class="b" d="M547.4,438.0 v-25.5 q0,-4.0 4.0,-4.0 h43.6 q4.0,0 4.0,4.0 v25.5 z"><title>367 addresses predicted near 95%</title></path>
</svg>
