<svg xmlns="http://www.w3.org/2000/svg" viewBox="0 0 640 488" width="640" height="488" class="viz" role="img" aria-label="Reliability of the deposit-address model: tron, each exchange scored unseen">
<style>
.viz{--surface:#fcfcfb;--ink:#0b0b0b;--ink2:#52514e;--muted:#898781;--grid:#e1e0d9;
--axis:#c3c2b7;--series:#2a78d6;font-family:system-ui,-apple-system,"Segoe UI",sans-serif}
@media (prefers-color-scheme: dark){.viz{--surface:#1a1a19;--ink:#ffffff;--ink2:#c3c2b7;
--grid:#2c2c2a;--axis:#383835;--series:#3987e5}}
.bg{fill:var(--surface)}.t{fill:var(--ink);font-size:15px;font-weight:600}
.s{fill:var(--ink2);font-size:12px}.m{fill:var(--muted);font-size:11px}
.v{fill:var(--ink);font-size:12px;font-variant-numeric:tabular-nums}
.g{stroke:var(--grid);stroke-width:1}.a{stroke:var(--axis);stroke-width:1}
.d{stroke:var(--axis);stroke-width:1.5;stroke-dasharray:4 4;fill:none}
.l{stroke:var(--series);stroke-width:2;fill:none;stroke-linejoin:round}
.p{fill:var(--series);stroke:var(--surface);stroke-width:2}.b{fill:var(--series)}
</style>
<rect class="bg" width="640" height="488"/>
<text class="t" x="64" y="28">How well the probabilities hold: tron, each exchange scored unseen</text>
<text class="s" x="64" y="48">Share that really were deposit addresses, by predicted probability · ECE 0.029 · Brier 0.014</text>
<line class="a" x1="64" x2="600" y1="316.0" y2="316.0"/>
<text class="m" x="56" y="320.0" text-anchor="end">0%</text>
<text class="m" x="64.0" y="334" text-anchor="middle">0%</text>
<line class="g" x1="64" x2="600" y1="256.0" y2="256.0"/>
<text class="m" x="56" y="260.0" text-anchor="end">25%</text>
<text class="m" x="198.0" y="334" text-anchor="middle">25%</text>
<line class="g" x1="64" x2="600" y1="196.0" y2="196.0"/>
<text class="m" x="56" y="200.0" text-anchor="end">50%</text>
<text class="m" x="332.0" y="334" text-anchor="middle">50%</text>
<line class="g" x1="64" x2="600" y1="136.0" y2="136.0"/>
<text class="m" x="56" y="140.0" text-anchor="end">75%</text>
<text class="m" x="466.0" y="334" text-anchor="middle">75%</text>
<line class="g" x1="64" x2="600" y1="76.0" y2="76.0"/>
<text class="m" x="56" y="80.0" text-anchor="end">100%</text>
<text class="m" x="600.0" y="334" text-anchor="middle">100%</text>
<text class="m" x="600" y="352" text-anchor="end">predicted probability</text>
<text class="m" x="64" y="66">observed share</text>
<line class="d" x1="64.0" y1="316.0" x2="600.0" y2="76.0"/>
<text class="m" x="600" y="66" text-anchor="end">dashed line: perfect calibration</text>
<polyline class="l" points="68.2,313.8 138.4,316.0 189.0,256.0 242.6,281.7 320.4,236.0 332.0,80.2 421.4,76.0 488.2,93.1 525.3,77.0 594.7,76.1"/>
<circle class="p" cx="68.2" cy="313.8" r="5"><title>Predicted 1%, observed 1%, 3,427 addresses</title></circle>
<circle class="p" cx="138.4" cy="316.0" r="5"><title>Predicted 14%, observed 0%, 30 addresses</title></circle>
<circle class="p" cx="189.0" cy="256.0" r="5"><title>Predicted 23%, observed 25%, 12 addresses</title></circle>
<circle class="p" cx="242.6" cy="281.7" r="5"><title>Predicted 33%, observed 14%, 7 addresses</title></circle>
<circle class="p" cx="320.4" cy="236.0" r="5"><title>Predicted 48%, observed 33%, 3 addresses</title></circle>
<circle class="p" cx="332.0" cy="80.2" r="5"><title>Predicted 50%, observed 98%, 287 addresses</title></circle>
<circle class="p" cx="421.4" cy="76.0" r="5"><title>Predicted 67%, observed 100%, 3 addresses</title></circle>
<circle class="p" cx="488.2" cy="93.1" r="5"><title>Predicted 79%, observed 93%, 14 addresses</title></circle>
<circle class="p" cx="525.3" cy="77.0" r="5"><title>Predicted 86%, observed 100%, 495 addresses</title></circle>
<circle class="p" cx="594.7" cy="76.1" r="5"><title>Predicted 99%, observed 100%, 4,672 addresses</title></circle>
<text class="m" x="64" y="454">addresses per bin</text>
<line class="a" x1="64" x2="600" y1="438" y2="438"/>
<path class="b" d="M65.0,438.0 v-37.1 q0,-4.0 4.0,-4.0 h43.6 q4.0,0 4.0,4.0 v37.1 z"><title>3,427 addresses predicted near 5%</title></path>
<path class="b" d="M118.6,438.0 v-0.0 q0,-1.0 1.0,-1.0 h49.6 q1.0,0 1.0,1.0 v0.0 z"><title>30 addresses predicted near 15%</title></path>
<path class="b" d="M172.2,438.0 v-0.0 q0,-1.0 1.0,-1.0 h49.6 q1.0,0 1.0,1.0 v0.0 z"><title>12 addresses predicted near 25%</title></path>
<path class="b" d="M225.8,438.0 v-0.0 q0,-1.0 1.0,-1.0 h49.6 q1.0,0 1.0,1.0 v0.0 z"><title>7 addresses predicted near 35%</title></path>
<path class="b" d="M279.4,438.0 v-0.0 q0,-1.0 1.0,-1.0 h49.6 q1.0,0 1.0,1.0 v0.0 z"><title>3 addresses predicted near 45%</title></path>
<path class="b" d="M333.0,438.0 v-0.0 q0,-3.4 3.4,-3.4 h44.7 q3.4,0 3.4,3.4 v0.0 z"><title>287 addresses predicted near 55%</title></path>
<path class="b" d="M386.6,438.0 v-0.0 q0,-1.0 1.0,-1.0 h49.6 q1.0,0 1.0,1.0 v0.0 z"><title>3 addresses predicted near 65%</title></path>
<path class="b" d="M440.2,438.0 v-0.0 q0,-1.0 1.0,-1.0 h49.6 q1.0,0 1.0,1.0 v0.0 z"><title>14 addresses predicted near 75%</title></path>
<path class="b" d="M493.8,438.0 v-1.9 q0,-4.0 4.0,-4.0 h43.6 q4.0,0 4.0,4.0 v1.9 z"><title>495 addresses predicted near 85%</title></path>
<path class="b" d="M547.4,438.0 v-52.0 q0,-4.0 4.0,-4.0 h43.6 q4.0,0 4.0,4.0 v52.0 z"><title>4,672 addresses predicted near 95%</title></path>
<text class="v" x="573.2" y="377.0" text-anchor="middle">4,672</text>
</svg>
